<svg xmlns="http://www.w3.org/2000/svg" xmlns:xlink="http://www.w3.org/1999/xlink" width="500" zoomAndPan="magnify" viewBox="0 0 375 374.999991" height="500" preserveAspectRatio="xMidYMid meet" version="1.0"><defs><clipPath id="10b136bf9f"><path d="M 0.75 0.75 L 374.25 0.75 L 374.25 374.25 L 0.75 374.25 Z M 0.75 0.75 " clip-rule="nonzero"/></clipPath><clipPath id="d9697f9d84"><path d="M 0 187.5 C 0 291.054688 83.945312 375 187.5 375 C 291.054688 375 375 291.054688 375 187.5 C 375 83.945312 291.054688 0 187.5 0 C 83.945312 0 0 83.945312 0 187.5 Z M 0 187.5 " clip-rule="nonzero"/></clipPath><clipPath id="09debe65f7"><path d="M 187.5 0.898438 C 290.554688 0.898438 374.101562 84.445312 374.101562 187.5 C 374.101562 290.554688 290.554688 374.101562 187.5 374.101562 C 84.445312 374.101562 0.898438 290.554688 0.898438 187.5 C 0.898438 84.445312 84.445312 0.898438 187.5 0.898438 Z M 187.5 0.898438 " clip-rule="nonzero"/></clipPath><clipPath id="001504e745"><path d="M 0 187.5 C 0 291.054688 83.945312 375 187.5 375 C 291.054688 375 375 291.054688 375 187.5 C 375 83.945312 291.054688 0 187.5 0 C 83.945312 0 0 83.945312 0 187.5 Z M 0 187.5 " clip-rule="nonzero"/></clipPath><clipPath id="8471369d60"><path d="M 0 187.5 C 0 291.054688 83.945312 375 187.5 375 C 291.054688 375 375 291.054688 375 187.5 C 375 83.945312 291.054688 0 187.5 0 C 83.945312 0 0 83.945312 0 187.5 Z M 0 187.5 " clip-rule="nonzero"/></clipPath><clipPath id="d7bb384b75"><path d="M 50 123.722656 L 160.226562 123.722656 L 160.226562 251.222656 L 50 251.222656 Z M 50 123.722656 " clip-rule="nonzero"/></clipPath><clipPath id="cb8538fff3"><path d="M 216.003906 123.769531 L 326.253906 123.769531 L 326.253906 251.269531 L 216.003906 251.269531 Z M 216.003906 123.769531 " clip-rule="nonzero"/></clipPath><clipPath id="42f44bc37d"><path d="M 160.234375 123.769531 L 213.484375 123.769531 L 213.484375 251.269531 L 160.234375 251.269531 Z M 160.234375 123.769531 " clip-rule="nonzero"/></clipPath></defs><g clip-path="url(#10b136bf9f)"><g clip-path="url(#d9697f9d84)"><g clip-path="url(#09debe65f7)"><path fill="#000000" d="M 187.253906 374.753906 C 83.769531 374.753906 0 290.488281 0 187.5 C 0 84.019531 84.265625 0.246094 187.253906 0.246094 C 290.734375 0.246094 374.507812 84.511719 374.507812 187.5 C 375 290.488281 290.734375 374.753906 187.253906 374.753906 Z M 187.253906 47.058594 C 110.382812 47.058594 47.304688 110.132812 47.304688 187.007812 C 47.304688 263.878906 110.382812 327.449219 187.253906 327.449219 C 264.125 327.449219 327.695312 264.371094 327.695312 187.007812 C 327.695312 109.640625 264.617188 47.058594 187.253906 47.058594 Z M 187.253906 47.058594 " fill-opacity="1" fill-rule="nonzero"/></g></g></g><g clip-path="url(#001504e745)"><g clip-path="url(#8471369d60)"><path stroke-linecap="butt" transform="matrix(0.75, 0, 0, 0.75, 0.0000045, 0)" fill="none" stroke-linejoin="miter" d="M -0.000006 250.000016 C -0.000006 388.072942 111.927085 500.000033 250.00001 500.000033 C 388.072936 500.000033 500.000027 388.072942 500.000027 250.000016 C 500.000027 111.927091 388.072936 0 250.00001 0 C 111.927085 0 -0.000006 111.927091 -0.000006 250.000016 Z M -0.000006 250.000016 " stroke="#004aad" stroke-width="126" stroke-opacity="1" stroke-miterlimit="4"/></g></g><g clip-path="url(#d7bb384b75)"><path fill="#d9d9d9" d="M 160.226562 123.949219 L 160.226562 159.398438 L 111.578125 187.484375 L 160.226562 215.566406 L 160.226562 251.015625 L 50.175781 187.484375 Z M 160.226562 123.949219 " fill-opacity="1" fill-rule="nonzero"/></g><g clip-path="url(#cb8538fff3)"><path fill="#d9d9d9" d="M 216.003906 251.042969 L 216.003906 215.59375 L 264.652344 187.507812 L 216.003906 159.425781 L 216.003906 123.976562 L 326.058594 187.507812 Z M 216.003906 251.042969 " fill-opacity="1" fill-rule="nonzero"/></g><g clip-path="url(#42f44bc37d)"><path fill="#d9d9d9" d="M 213.59375 123.820312 L 179.304688 251.207031 L 160.242188 251.207031 L 194.527344 123.820312 Z M 213.59375 123.820312 " fill-opacity="1" fill-rule="nonzero"/></g></svg>